<svg width="172" height="38" viewBox="0 0 172 38" fill="none" xmlns="http://www.w3.org/2000/svg"><g clip-path="url(#a)"><mask id="b" style="mask-type:luminance" maskUnits="userSpaceOnUse" x="2" y="2" width="34" height="34"><path d="M36 2H2v34h34z" fill="#fff"/></mask><g mask="url(#b)"><path fill-rule="evenodd" clip-rule="evenodd" d="M19 7.72a2.224 2.224 0 0 0-2.224 2.224h-5.72A7.944 7.944 0 1 1 19 17.888v-5.72a2.224 2.224 0 1 0 0-4.448M30.28 19a2.224 2.224 0 0 0-2.224-2.224v-5.72A7.944 7.944 0 1 1 20.112 19h5.72a2.224 2.224 0 0 0 4.448 0M9.944 21.224A2.224 2.224 0 1 1 12.168 19h5.72a7.944 7.944 0 1 0-7.944 7.944zM19 30.28a2.224 2.224 0 0 0 2.224-2.224h5.72A7.944 7.944 0 1 1 19 20.112v5.72a2.224 2.224 0 1 0 0 4.448" fill="#C58DE7"/></g></g><path d="M50.776 27.5V9.98h7.32l5.832 13.968h.84l-.48.432V9.98h4.176V27.5h-7.368l-5.832-13.968h-.84l.48-.432v14.4zm27.762.48q-2.52 0-4.272-.936a6.36 6.36 0 0 1-2.64-2.64q-.912-1.728-.912-4.08V9.98h4.464v10.44q0 1.032.384 1.8.408.768 1.152 1.176t1.824.408 1.824-.408a2.7 2.7 0 0 0 1.128-1.152q.384-.768.384-1.824V9.98h4.464v10.344q0 2.352-.912 4.08-.888 1.704-2.64 2.64-1.728.936-4.248.936m10.068-.48V9.98h6.192l3.6 9.24h.48l3.576-9.24h6.312V27.5h-4.416V12.548l.696.048-4.512 11.376h-4.056l-4.536-11.376.744-.048V27.5zm26.599.144v-3.408h3.864q.984 0 1.464-.504t.48-1.464-.48-1.44q-.48-.504-1.464-.504h-3.864v-2.64h3.72q1.848 0 3.312.456 1.464.432 2.304 1.44t.84 2.688v.336q0 1.584-.744 2.712t-2.184 1.728-3.528.6zm-3.84 0V9.836h4.32v17.808zm3.84-7.992v-2.64h3.216q.984 0 1.416-.48.456-.504.456-1.392 0-.912-.456-1.392-.432-.504-1.416-.504h-3.216V9.836h3.024q3.072 0 4.752 1.296 1.68 1.272 1.68 3.648v.36q0 1.656-.864 2.664-.84.984-2.304 1.416-1.44.432-3.264.432zm11.911 7.848V9.98h4.32V27.5zm3.84 0v-3.648h7.392V27.5zm0-7.08v-3.648h6.888v3.648zm0-6.792V9.98h7.248v3.648zm9.403 13.872V9.836h4.464V27.5zm10.56 0-4.92-7.44h4.848l5.208 7.44zm-7.224-5.376v-3.432h4.2q.792 0 1.368-.312t.888-.888q.336-.576.336-1.344 0-.792-.336-1.368a2.16 2.16 0 0 0-.888-.888q-.576-.312-1.368-.312h-4.2V9.836h3.936q2.28 0 3.936.696 1.656.672 2.544 2.016.888 1.32.888 3.288v.384q0 1.968-.912 3.288-.888 1.296-2.544 1.968-1.632.648-3.912.648zm19.592 5.856q-2.448 0-4.128-.768-1.656-.768-2.52-2.088-.84-1.344-.84-3.072h4.32q0 .624.336 1.152.36.504 1.056.792t1.776.288q.936 0 1.584-.24.672-.24 1.008-.672.36-.432.36-1.032 0-.768-.648-1.176-.648-.432-2.184-.552l-1.128-.096q-2.712-.24-4.32-1.704t-1.608-3.888q0-1.728.792-2.952.816-1.224 2.28-1.872t3.456-.648q2.16 0 3.648.72 1.512.72 2.304 2.04.792 1.296.792 3.024h-4.32q0-.576-.288-1.056a1.9 1.9 0 0 0-.84-.744q-.528-.288-1.296-.288-.72 0-1.224.24-.48.216-.744.624-.24.408-.24.912 0 .672.456 1.152t1.584.576l1.128.096q1.968.168 3.48.864 1.512.672 2.376 1.848t.864 2.88-.888 2.976q-.864 1.272-2.496 1.968-1.608.696-3.888.696" fill="#fff"/><defs><clipPath id="a"><path fill="#fff" d="M2 2h34v34H2z"/></clipPath></defs></svg>