<svg width="46" height="51" viewBox="0 0 46 51" fill="none" xmlns="http://www.w3.org/2000/svg"><path fill-rule="evenodd" clip-rule="evenodd" d="M1.673 41.973a13.1 13.1 0 0 0-.817 8.859h3.266a9.95 9.95 0 0 1 3.157-11.044 1.57 1.57 0 0 0 .573-1.068 15.19 15.19 0 0 1 30.232 0 1.6 1.6 0 0 0 .576 1.071 9.92 9.92 0 0 1 3.685 7.73 10 10 0 0 1-.568 3.31h3.286a13 13 0 0 0 .425-3.31 13.04 13.04 0 0 0-4.35-9.752 18.3 18.3 0 0 0-1.734-5.698 61.5 61.5 0 0 0 5.385-15.522c.788-4.09 1.306-9.666-.705-12.995A5.2 5.2 0 0 0 39.446.907c-6.505 0-10.517 11.24-12.814 21.325a18.2 18.2 0 0 0-7.333 0C17.003 12.147 12.991.907 6.485.907a5.2 5.2 0 0 0-4.638 2.64C-.166 6.874.357 12.45 1.143 16.54a61.5 61.5 0 0 0 5.384 15.53 18.3 18.3 0 0 0-1.733 5.706 13.1 13.1 0 0 0-3.121 4.196m33.654-15.32a18.3 18.3 0 0 0-5.667-3.53c2.631-11.636 6.426-19.074 9.786-19.074a2.1 2.1 0 0 1 1.949 1.131c2.26 3.724.392 14.373-3.96 23.756a18.6 18.6 0 0 0-2.108-2.284m-24.735-.008a18.6 18.6 0 0 0-2.095 2.283C4.144 19.553 2.277 8.904 4.537 5.18a2.1 2.1 0 0 1 1.948-1.13c3.36 0 7.155 7.437 9.774 19.064a18.3 18.3 0 0 0-5.667 3.53" fill="#9547A5"/><path fill-rule="evenodd" clip-rule="evenodd" d="M42.345 47.522a9.92 9.92 0 0 0-3.684-7.731 1.58 1.58 0 0 1-.577-1.071 15.19 15.19 0 0 0-30.232 0 1.57 1.57 0 0 1-.573 1.068 9.95 9.95 0 0 0-3.157 11.044h37.655a10 10 0 0 0 .568-3.31m-24.534-4.83a2.619 2.619 0 1 0-4.355-2.91 2.619 2.619 0 0 0 4.355 2.91m11.033-3.633a2.62 2.62 0 1 1 2.91 4.356 2.62 2.62 0 0 1-2.91-4.356" fill="#9547A5"/><path d="M8.497 28.928a18.6 18.6 0 0 1 2.095-2.283 18.3 18.3 0 0 1 5.667-3.53C13.64 11.486 9.845 4.048 6.485 4.048A2.1 2.1 0 0 0 4.537 5.18c-2.26 3.724-.393 14.373 3.96 23.748m21.163-5.806a18.33 18.33 0 0 1 7.775 5.814c4.352-9.383 6.22-20.032 3.96-23.756a2.1 2.1 0 0 0-1.949-1.13c-3.36 0-7.154 7.437-9.786 19.072" fill="#9547A5"/></svg>