<svg width="31" height="52" viewBox="0 0 31 52" fill="none" xmlns="http://www.w3.org/2000/svg"><path d="M14.64.755a2.71 2.71 0 0 1 3.103-.428c.506.27.919.685 1.185 1.194l1.648 3.373a6.08 6.08 0 0 0 4.34 3.273l3.747.655a2.72 2.72 0 0 1 2.138 2.34 2.72 2.72 0 0 1-1.535 2.773l-3.38 1.651a6.09 6.09 0 0 0-3.279 4.339l-.662 3.737a2.714 2.714 0 0 1-3.934 1.853 2.7 2.7 0 0 1-1.155-1.182l-1.684-3.44a6.08 6.08 0 0 0-4.235-3.21l-3.742-.648a2.718 2.718 0 0 1-1.855-3.932 2.7 2.7 0 0 1 1.182-1.157L9.9 10.303a6.06 6.06 0 0 0 3.277-4.367l.662-3.745A2.7 2.7 0 0 1 14.64.755m-9.293 38.13a1.36 1.36 0 0 1 1.558-.215c.254.136.461.344.595.6l.828 1.693a3.05 3.05 0 0 0 2.179 1.644l1.881.329a1.365 1.365 0 0 1 .303 2.567l-1.697.83a3.06 3.06 0 0 0-1.647 2.178l-.332 1.877a1.363 1.363 0 0 1-2.556.336l-.845-1.726a3.06 3.06 0 0 0-2.126-1.613l-1.88-.325a1.365 1.365 0 0 1-.338-2.555l1.697-.825a3.04 3.04 0 0 0 1.645-2.193l.332-1.88c.057-.277.198-.53.403-.722" fill="#9547A5"/></svg>