<svg width="56" height="25" viewBox="0 0 56 25" fill="none" xmlns="http://www.w3.org/2000/svg"><path d="M44.398.967a2.42 2.42 0 0 1 2.77.396c.367.357.62.814.723 1.317l.585 3.301a5.43 5.43 0 0 0 2.92 3.879l3.055 1.485a2.427 2.427 0 0 1-.74 4.538l-3.31.586a5.44 5.44 0 0 0-3.882 2.918l-1.489 3.045a2.424 2.424 0 0 1-3.833.623 2.42 2.42 0 0 1-.701-1.3l-.6-3.367a5.43 5.43 0 0 0-2.844-3.8l-3.054-1.477a2.428 2.428 0 0 1-.624-3.832c.35-.363.803-.609 1.299-.702l3.305-.58a5.41 5.41 0 0 0 3.889-2.942l1.49-3.053a2.4 2.4 0 0 1 1.04-1.035M5.975 13.438a1.17 1.17 0 0 1 1.342.192c.178.172.3.394.35.637l.283 1.6a2.63 2.63 0 0 0 1.415 1.879l1.48.72a1.176 1.176 0 0 1-.359 2.198l-1.603.284a2.63 2.63 0 0 0-1.88 1.413l-.722 1.476a1.175 1.175 0 0 1-2.196-.329l-.29-1.63a2.63 2.63 0 0 0-1.379-1.842l-1.48-.715a1.177 1.177 0 0 1 .328-2.197l1.601-.28a2.62 2.62 0 0 0 1.884-1.426l.721-1.479c.113-.216.29-.39.505-.501" fill="#9547A5"/></svg>