<svg width="20" height="20" viewBox="0 0 20 20" fill="none" xmlns="http://www.w3.org/2000/svg"><path d="M18.333 6.07c0 2.2-1.865 3.986-4.166 3.986q-.406 0-.806-.075c-.192-.036-.287-.054-.354-.044s-.162.06-.35.162a2.7 2.7 0 0 1-1.76.273c.227-.28.383-.617.452-.978.042-.221-.062-.436-.216-.593A3.88 3.88 0 0 1 10 6.07c0-2.202 1.866-3.987 4.167-3.987s4.166 1.785 4.166 3.987Z" stroke="#C58DE7" stroke-width="1.5" stroke-linejoin="round"/><path d="M12.91 6.25h.007m2.493 0h.007" stroke="#C58DE7" stroke-width="1.5" stroke-linecap="round"/><path d="M6.252 17.917h-2.32c-.27 0-.54-.038-.788-.145-.805-.346-1.214-.803-1.404-1.088a.45.45 0 0 1 .024-.527c.934-1.24 3.101-1.988 4.492-1.988 1.39 0 3.554.749 4.487 1.988a.45.45 0 0 1 .024.526c-.19.286-.599.743-1.404 1.09a2 2 0 0 1-.788.144zm2.319-8.093a2.313 2.313 0 0 1-2.315 2.31 2.313 2.313 0 0 1-2.316-2.31 2.313 2.313 0 0 1 2.316-2.31 2.313 2.313 0 0 1 2.315 2.31" stroke="#C58DE7" stroke-width="1.5" stroke-linecap="round" stroke-linejoin="round"/></svg>