<svg width="20" height="20" viewBox="0 0 20 20" fill="none" xmlns="http://www.w3.org/2000/svg">
  <g clip-path="url(#a)" fill="#9282FA">
    <path d="M19.31 11.862V10c0-.781-.003-2.174-.015-2.793H.7C.687 7.827.69 9.219.69 10v1.862c0 3.511 0 5.266 1.091 6.357s2.846 1.091 6.357 1.091h3.724c3.511 0 5.267 0 6.357-1.09 1.091-1.092 1.091-2.847 1.091-6.358" fill-opacity=".4"/>
    <path d="M5.29.69c.387 0 .7.302.7.674v1.36c.622-.011 1.32-.011 2.104-.011h3.739c.784 0 1.48 0 2.102.011v-1.36c0-.372.314-.674.701-.674.388 0 .702.302.702.674v1.42c1.345.103 2.228.358 2.877.982s.913 1.473 1.02 2.767l.075.674H.69v-.674c.108-1.294.372-2.143 1.021-2.767.65-.624 1.532-.879 2.878-.982v-1.42c0-.372.314-.674.7-.674"/>
  </g>
  <defs>
    <clipPath id="a">
      <path fill="#fff" d="M0 0h20v20H0z"/>
    </clipPath>
  </defs>
</svg>
