<svg width="156" height="40" viewBox="0 0 156 40" fill="none" xmlns="http://www.w3.org/2000/svg"><g clip-path="url(#a)"><path d="M9.154 13.358a2.62 2.62 0 0 1-1.778-.76 2.48 2.48 0 0 1-.73-1.752c0-.654.262-1.282.73-1.752a2.62 2.62 0 0 1 1.778-.76h16.431c.672.018 1.31.291 1.778.76s.73 1.098.73 1.752a2.48 2.48 0 0 1-.73 1.751 2.62 2.62 0 0 1-1.778.761zm-6.571 4.368c.51 0 1.01-.147 1.435-.424a2.53 2.53 0 0 0 .95-1.128c.196-.459.247-.964.148-1.452a2.5 2.5 0 0 0-.707-1.287 2.6 2.6 0 0 0-1.322-.688 2.65 2.65 0 0 0-1.493.143c-.472.19-.875.512-1.159.926-.284.413-.435.9-.435 1.396a2.48 2.48 0 0 0 .759 1.774 2.62 2.62 0 0 0 1.824.734zm2.347 8.882a2.62 2.62 0 0 0-1.826.736 2.48 2.48 0 0 0-.757 1.777c0 .667.272 1.306.757 1.778a2.62 2.62 0 0 0 1.826.736h16.429a2.62 2.62 0 0 0 1.826-.736 2.48 2.48 0 0 0 .757-1.778 2.48 2.48 0 0 0-.757-1.777 2.62 2.62 0 0 0-1.826-.736zm3.755-9.137a2.7 2.7 0 0 0-1.01.17 2.6 2.6 0 0 0-.864.54 2.5 2.5 0 0 0-.58.824 2.46 2.46 0 0 0 0 1.958c.135.31.332.59.58.824s.541.418.863.54.666.18 1.011.17h13.143a2.63 2.63 0 0 0 1.874-.71c.248-.234.445-.514.58-.824a2.46 2.46 0 0 0 0-1.958 2.5 2.5 0 0 0-.58-.824 2.6 2.6 0 0 0-.863-.54 2.7 2.7 0 0 0-1.011-.17zm19.247 4.771c-.51 0-1.01.147-1.435.423a2.53 2.53 0 0 0-.953 1.128 2.45 2.45 0 0 0-.147 1.453c.1.487.346.936.707 1.287.361.352.822.591 1.323.688.5.097 1.02.047 1.492-.143.473-.19.876-.513 1.16-.927a2.47 2.47 0 0 0 .24-2.36 2.5 2.5 0 0 0-.56-.817 2.6 2.6 0 0 0-.838-.547 2.6 2.6 0 0 0-.989-.191z" fill="#CA3884"/></g><path d="M50.046 34.333V24.68l1.147-1.547q-.054 1.974-.8 3.414-.72 1.413-2.027 2.186-1.306.747-3.066.747-1.52 0-2.774-.56a6.8 6.8 0 0 1-2.16-1.573 7.3 7.3 0 0 1-1.36-2.374 9.2 9.2 0 0 1-.453-2.933v-.613q0-1.574.48-2.934a7.4 7.4 0 0 1 1.413-2.373 6.6 6.6 0 0 1 2.187-1.573q1.28-.587 2.826-.587 1.815 0 3.12.8 1.335.774 2.08 2.267.747 1.466.8 3.6h-.506v-6.24h3.386v19.946zm-3.493-8.453q.986 0 1.787-.427a3.3 3.3 0 0 0 1.306-1.306q.507-.854.507-2.054v-.986q0-1.174-.507-1.974a3.4 3.4 0 0 0-1.333-1.226 3.8 3.8 0 0 0-1.76-.427q-1.094 0-1.947.56-.826.534-1.306 1.493-.48.934-.48 2.214 0 1.253.48 2.186.48.935 1.306 1.44.853.507 1.947.507m16.057 3.573q-2.534 0-3.894-1.626-1.36-1.654-1.36-4.96v-8.48h4.267v8.693q0 1.173.666 1.867.667.693 1.787.693 1.147 0 1.867-.72t.72-1.947v-8.586h4.267V29h-3.387v-6.16h.293q0 2.213-.587 3.707-.56 1.466-1.68 2.186t-2.773.72zM75.024 29V14.387h4.266V29zm-1.947-11.467v-3.146h6.213v3.146zm3.6-4.586q-1.2 0-1.787-.614-.56-.64-.56-1.6 0-.985.56-1.6.587-.64 1.787-.64t1.76.64q.587.615.587 1.6 0 .96-.587 1.6-.56.615-1.76.614m12.586 16.56q-1.893 0-3.306-.614-1.387-.64-2.32-1.706a7.1 7.1 0 0 1-1.387-2.4 8.8 8.8 0 0 1-.453-2.8v-.507q0-1.494.48-2.853a7.3 7.3 0 0 1 1.413-2.454 6.6 6.6 0 0 1 2.32-1.68q1.413-.613 3.227-.613 1.973 0 3.493.773a6.1 6.1 0 0 1 2.427 2.107q.906 1.36 1.013 3.12h-4.187a2.6 2.6 0 0 0-.8-1.653q-.666-.694-1.946-.694-1.067 0-1.787.534-.693.533-1.04 1.466-.347.934-.347 2.214 0 1.173.32 2.133.32.933 1.014 1.467.72.506 1.866.506.855 0 1.44-.293.615-.32.96-.853.374-.56.454-1.28h4.16q-.081 1.813-1.014 3.2-.933 1.359-2.48 2.133-1.546.747-3.52.747M108.765 29l-4.613-6.827h-2.053l5.946-7.786h4.48l-5.6 7.253.054-2.08 6.586 9.44zm-10.293 0V9.533h4.267V29zm16.554 0V9.533h4.294V29zm-1.733-16.32V9.533h6.027v3.147zM123.411 29V14.387h4.267V29zm-1.947-11.467v-3.146h6.214v3.146zm3.6-4.586q-1.2 0-1.786-.614-.56-.64-.56-1.6 0-.985.56-1.6.586-.64 1.786-.64t1.76.64q.587.615.587 1.6 0 .96-.587 1.6-.56.615-1.76.614m11.573 16.506q-3.12 0-4.88-1.28t-1.866-3.6h3.786q.107.694.827 1.254.747.533 2.213.533 1.12 0 1.84-.373.747-.4.747-1.12 0-.64-.56-1.014-.56-.4-2-.56l-1.147-.106q-2.64-.267-3.973-1.467-1.307-1.2-1.307-3.067 0-1.546.774-2.586.772-1.04 2.133-1.574 1.387-.533 3.147-.533 2.826 0 4.56 1.253 1.733 1.228 1.813 3.574h-3.787q-.107-.72-.746-1.2-.64-.507-1.894-.507-.986 0-1.573.373-.587.374-.587 1.014 0 .613.507.933t1.653.453l1.147.107q2.694.294 4.187 1.493t1.493 3.227q0 1.467-.8 2.56-.8 1.067-2.267 1.653-1.466.56-3.44.56m15.378-.266q-2.213 0-3.573-.534-1.36-.56-2-1.84-.614-1.305-.614-3.52V10.44h3.974v13.013q0 1.04.533 1.6.56.534 1.573.534h2.16v3.6zm-8.4-11.68v-3.12h10.453v3.12z" fill="#374151"/><defs><clipPath id="a"><path fill="#fff" d="M0 8.333h30.513v23.333H0z"/></clipPath></defs></svg>