<svg width="108" height="129" viewBox="0 0 108 129" fill="none" xmlns="http://www.w3.org/2000/svg"><path d="M105.537 128.269a1 1 0 1 0 1.926-.538zM2 81l-.981.194zM51.205.021a1 1 0 0 0-1.184.774l-1.844 8.81a1 1 0 0 0 1.958.409l1.639-7.83 7.83 1.639a1 1 0 0 0 .41-1.958zm56.258 127.71c-3.078-11.03-11.722-21.721-22.694-30.972-10.991-9.267-24.423-17.177-37.254-22.617-12.801-5.428-25.133-8.453-33.9-7.82-4.383.318-8.04 1.562-10.36 4.061-2.358 2.54-3.152 6.168-2.236 10.81l1.962-.386c-.835-4.233-.05-7.135 1.74-9.063 1.828-1.968 4.89-3.126 9.038-3.426 8.296-.6 20.277 2.28 32.975 7.665 12.67 5.372 25.925 13.181 36.746 22.305 10.84 9.14 19.135 19.511 22.057 29.981zM1.019 81.194c.703 3.564 2.702 5.87 5.617 6.91 2.836 1.01 6.405.776 10.248-.362 7.706-2.282 17.002-8.34 25.015-16.803C57.919 54.017 69.196 27.003 51.837.453l-1.674 1.094c16.64 25.45 5.98 51.438-9.717 68.017-7.846 8.288-16.854 14.105-24.13 16.26-3.646 1.08-6.737 1.205-9.008.395-2.193-.781-3.748-2.476-4.327-5.412z" fill="#7D298A"/></svg>