<svg width="180" height="33" viewBox="0 0 180 33" fill="none" xmlns="http://www.w3.org/2000/svg"><path d="M177.631 31.994a1 1 0 1 0 1.738-.988zM4.316.551a1 1 0 0 0-1.265.633L.205 9.722a1 1 0 1 0 1.898.632l2.53-7.59 7.589 2.53a1 1 0 1 0 .632-1.897zM179.37 31.006c-3.976-6.99-9.181-11.548-15.323-14.28-6.123-2.723-13.117-3.607-20.649-3.358-15.019.496-32.493 5.524-49.95 9.849-17.545 4.347-35.106 7.998-50.59 5.956-15.382-2.03-28.743-9.681-37.963-28.12l-1.788.894c9.53 19.061 23.481 27.097 39.49 29.208 15.907 2.099 33.815-1.657 51.332-5.997 17.605-4.362 34.788-9.304 49.535-9.791 7.35-.243 14.016.627 19.77 3.186 5.736 2.552 10.624 6.807 14.398 13.441z" fill="#7D298A"/></svg>