<svg width="40" height="40" viewBox="0 0 40 40" fill="none" xmlns="http://www.w3.org/2000/svg"><path d="M17.606.762a4.16 4.16 0 0 1 4.818.012 4.4 4.4 0 0 1 1.55 2.072l1.788 5.491a9.36 9.36 0 0 0 5.912 5.916l5.567 1.8a4.18 4.18 0 0 1 1.919 6.443 4.2 4.2 0 0 1-2.095 1.477l-5.503 1.792a9.37 9.37 0 0 0-5.924 5.908l-1.809 5.551A4.18 4.18 0 0 1 19.857 40a4.18 4.18 0 0 1-3.924-2.844l-1.83-5.6a9.36 9.36 0 0 0-5.763-5.8L2.777 23.97A4.18 4.18 0 0 1 0 19.999a4.18 4.18 0 0 1 2.84-3.926l5.5-1.78a9.33 9.33 0 0 0 5.928-5.952l1.809-5.563A4.16 4.16 0 0 1 17.606.762" fill="#E2E7E9"/></svg>