<svg width="20" height="20" viewBox="0 0 20 20" fill="none" xmlns="http://www.w3.org/2000/svg">
  <g clip-path="url(#a)">
    <path d="M9.888 6.747a3.14 3.14 0 1 1-6.282 0 3.14 3.14 0 0 1 6.282 0" fill="#F09102"/>
    <path fill-rule="evenodd" clip-rule="evenodd" d="M6.298.69c.372 0 .673.301.673.673v.449a.673.673 0 0 1-1.346 0v-.449c0-.372.302-.673.673-.673M2.333 2.333a.673.673 0 0 1 .952 0l.194.194a.673.673 0 1 1-.952.951l-.194-.194a.673.673 0 0 1 0-.951m7.93 0a.673.673 0 0 1 0 .952l-.193.193a.673.673 0 1 1-.952-.951l.194-.194a.673.673 0 0 1 .952 0M.69 6.298c0-.371.301-.673.673-.673h.449a.673.673 0 1 1 0 1.346h-.45a.673.673 0 0 1-.672-.673m2.789 2.82a.673.673 0 0 1 0 .952l-.194.194a.673.673 0 0 1-.952-.952l.194-.193a.673.673 0 0 1 .952 0" fill="#F09102"/>
    <path d="M14.182 19.31c2.832 0 5.128-2.269 5.128-5.067 0-2.219-1.442-4.104-3.45-4.79-.286-2.532-2.458-4.5-5.096-4.5-2.832 0-5.128 2.268-5.128 5.067 0 .619.112 1.212.318 1.76a4 4 0 0 0-.745-.071c-2.124 0-3.846 1.702-3.846 3.8 0 2.1 1.722 3.801 3.846 3.801z" fill="#75501B"/>
  </g>
  <defs>
    <clipPath id="a">
      <path fill="#fff" d="M0 0h20v20H0z"/>
    </clipPath>
  </defs>
</svg>
