<svg width="109" height="24" viewBox="0 0 109 24" fill="none" xmlns="http://www.w3.org/2000/svg">
  <path d="M16.649 11.702v5.287a2.66 2.66 0 0 1-2.66 2.66H6.01a2.66 2.66 0 0 1-2.66-2.66v-5.287l4.655-6.016h3.99z" fill="#9282FA" fill-opacity=".4"/>
  <path d="M19.284 12.086 17.92 4.772a1.33 1.33 0 0 0-1.63-1.046l-.026.008L11.9 5.02H8.101L3.736 3.738 3.71 3.73a1.33 1.33 0 0 0-1.63 1.046l-1.365 7.31a1.31 1.31 0 0 0 .758 1.456c.175.08.365.122.558.123.23 0 .457-.062.655-.18v3.504a3.324 3.324 0 0 0 3.324 3.325h7.98a3.324 3.324 0 0 0 3.324-3.325v-3.503c.198.117.424.18.654.18.193-.001.383-.043.558-.123a1.31 1.31 0 0 0 .758-1.457m-17.263.249L3.387 5.02l3.496 1.028zm11.968 6.649h-3.324v-1.055l1.135-1.134a.665.665 0 0 0-.94-.941l-.86.86-.86-.86a.665.665 0 0 0-.94.94l1.135 1.135v1.055H6.01a1.995 1.995 0 0 1-1.994-1.995v-5.06L8.332 6.35h3.336l4.316 5.578v5.06a1.995 1.995 0 0 1-1.995 1.995m3.99-6.65L13.117 6.05l3.496-1.028zm-9.974.998a.998.998 0 1 1-1.995 0 .998.998 0 0 1 1.995 0m5.984 0a.997.997 0 1 1-1.994 0 .997.997 0 0 1 1.994 0M25.013 18V7.6h4.347q2 0 2.92.853.92.84.92 2.267T32.28 13q-.906.853-2.92.853h-2.133V18zm2.214-5.827h1.8q.906 0 1.413-.306.52-.32.52-1.134 0-.8-.52-1.12-.507-.333-1.413-.333h-1.8zM34.607 18V7.6H41.7v1.76h-4.88v2.293h3.76v1.627h-3.76v2.96h4.96V18zm11.264 0V9.36h-3.08V7.6h8.4v1.76h-3.08V18zm10.806 0L55.17 7.68V7.6h2.187l1.24 8.64h.32L60.41 7.6h3.707l1.507 8.64h.32L67.17 7.6h2.053v.08L67.718 18H63.85l-1.493-8.64h-.32L60.544 18zm18.25.187q-1.653 0-2.76-.654a4.13 4.13 0 0 1-1.64-1.88q-.534-1.213-.533-2.853 0-1.653.533-2.853.546-1.214 1.64-1.867 1.107-.666 2.76-.667 1.667 0 2.76.667 1.093.654 1.627 1.867.546 1.2.546 2.853 0 1.64-.546 2.853a4.05 4.05 0 0 1-1.627 1.88q-1.093.654-2.76.654m0-1.68q1.347 0 1.973-.96.64-.975.64-2.747 0-1.787-.64-2.747-.626-.96-1.973-.96t-1.987.96q-.626.96-.626 2.747 0 1.773.626 2.747.641.96 1.987.96M81.28 18V7.6h4.413q1.335 0 2.16.387.84.373 1.227 1.04.4.653.4 1.52 0 .986-.52 1.706t-1.533 1.027l2.333 4.64V18h-2.373l-2.12-4.4h-1.774V18zm2.213-6.027h1.88q.867 0 1.347-.293.493-.294.493-1.053 0-.774-.493-1.054-.493-.293-1.347-.293h-1.88zM91.013 18V7.6h2.24v8.64H97.6V18zm8 0V7.6h3.707q2.773 0 4.027 1.373Q108 10.333 108 12.8t-1.253 3.84Q105.493 18 102.72 18zm2.24-1.733h1.334q1.026 0 1.706-.307.694-.32 1.04-1.067.347-.76.347-2.093t-.347-2.08q-.346-.76-1.04-1.067-.68-.32-1.706-.32h-1.334z" fill="#9282FA"/>
</svg>
