<svg width="20" height="20" viewBox="0 0 20 20" fill="none" xmlns="http://www.w3.org/2000/svg">
  <g clip-path="url(#a)">
    <path d="M3.288 16.062c0-.358.29-.65.65-.65h12.124a.65.65 0 0 1 0 1.3H3.938a.65.65 0 0 1-.65-.65M4.154 10c0 1.02.262 1.98.721 2.815h10.25A5.846 5.846 0 1 0 4.155 10" fill="#027DF0"/>
    <path fill-rule="evenodd" clip-rule="evenodd" d="M5.886 18.66a.65.65 0 0 1 .65-.649h6.928a.65.65 0 1 1 0 1.299H6.536a.65.65 0 0 1-.65-.65M10 .69c.359 0 .65.29.65.65v.866a.65.65 0 0 1-1.3 0V1.34c0-.36.291-.65.65-.65M.69 10c0-.359.29-.65.65-.65h.866a.65.65 0 0 1 0 1.3H1.34A.65.65 0 0 1 .69 10m16.455 0c0-.359.29-.65.65-.65h.865a.65.65 0 1 1 0 1.3h-.866a.65.65 0 0 1-.65-.65M4.875 12.815H1.34a.65.65 0 0 0 0 1.299h17.32a.65.65 0 1 0 0-1.3z" fill="#16487A"/>
    <path d="M3.417 3.417a.65.65 0 0 1 .918 0l.34.34a.65.65 0 0 1-.918.918l-.34-.34a.65.65 0 0 1 0-.918m13.166 0a.65.65 0 0 1 0 .918l-.34.34a.65.65 0 0 1-.92-.918l.341-.34a.65.65 0 0 1 .919 0" fill="#027DF0"/>
  </g>
  <defs>
    <clipPath id="a">
      <path fill="#fff" d="M0 0h20v20H0z"/>
    </clipPath>
  </defs>
</svg>
