<svg width="20" height="20" viewBox="0 0 20 20" fill="none" xmlns="http://www.w3.org/2000/svg">
  <g clip-path="url(#a)">
    <path d="M10 19.31A9.31 9.31 0 0 0 19.31 10c0-.43-.646-.502-.869-.133a6.051 6.051 0 1 1-8.308-8.308c.369-.223.298-.869-.133-.869a9.31 9.31 0 0 0 0 18.62" fill="#F0DC02"/>
    <path d="M17.355.976a.45.45 0 0 0-.838 0l-.4 1.02a.45.45 0 0 1-.254.254l-1.016.402c-.38.15-.38.69 0 .84l1.016.403a.45.45 0 0 1 .254.254l.4 1.02a.45.45 0 0 0 .838 0l.4-1.02a.45.45 0 0 1 .254-.254l1.016-.402c.38-.15.38-.69 0-.84l-1.016-.403a.45.45 0 0 1-.253-.254zm-3.601 5.421a.45.45 0 0 0-.837 0l-.146.371a.45.45 0 0 1-.254.255l-.37.146c-.38.15-.38.69 0 .84l.37.147a.45.45 0 0 1 .254.255l.146.372a.45.45 0 0 0 .837 0l.146-.372a.45.45 0 0 1 .254-.255l.37-.146c.38-.15.38-.69 0-.84l-.37-.147a.45.45 0 0 1-.254-.255z" fill="#756E1B"/>
  </g>
  <defs>
    <clipPath id="a">
      <path fill="#fff" d="M0 0h20v20H0z"/>
    </clipPath>
  </defs>
</svg>
