<svg width="20" height="20" viewBox="0 0 20 20" fill="none" xmlns="http://www.w3.org/2000/svg">
  <path fill-rule="evenodd" clip-rule="evenodd" d="M6.429 2.143c-.708 0-1.261.43-1.605.946-.347.52-.538 1.198-.538 1.911s.191 1.39.538 1.911c.344.516.897.946 1.605.946.707 0 1.26-.43 1.604-.946.347-.52.538-1.198.538-1.911s-.191-1.391-.538-1.911c-.344-.516-.897-.946-1.604-.946m7.142 0c-.707 0-1.26.43-1.604.946-.347.52-.538 1.198-.538 1.911s.191 1.39.538 1.911c.344.516.897.946 1.604.946s1.261-.43 1.605-.946c.347-.52.538-1.198.538-1.911s-.191-1.391-.538-1.911c-.344-.516-.897-.946-1.605-.946M2.143 8.57c-.708 0-1.261.43-1.605.946-.347.521-.538 1.2-.538 1.914s.191 1.39.538 1.911c.344.515.897.946 1.605.946.707 0 1.26-.43 1.604-.946.347-.52.539-1.198.539-1.912 0-.713-.192-1.39-.539-1.91-.343-.516-.897-.947-1.604-.947m7.857 0c-1.716 0-2.984.92-3.796 2.061C5.403 11.758 5 13.152 5 14.286c0 1.32.793 2.237 1.766 2.789.957.543 2.158.782 3.234.782s2.277-.239 3.235-.782c.972-.552 1.765-1.47 1.765-2.79 0-1.132-.403-2.527-1.204-3.653-.812-1.141-2.08-2.06-3.796-2.06m7.857 0c-.707 0-1.26.43-1.604.946-.347.52-.539 1.199-.539 1.912s.192 1.39.539 1.911c.343.515.897.946 1.604.946s1.261-.43 1.605-.946c.347-.52.538-1.198.538-1.912 0-.713-.191-1.39-.538-1.91-.344-.516-.897-.947-1.605-.947" fill="#9282FA"/>
</svg>
