<svg width="20" height="20" viewBox="0 0 20 20" fill="none" xmlns="http://www.w3.org/2000/svg">
  <path d="M9.03 11.032c-3.047-3.03-1.943-4.146-1.937-4.153l-4.178 4.178c.69 1.039 1.588 2.154 2.756 3.315 1.179 1.173 2.338 2.043 3.436 2.686l4.1-4.1s-1.12 1.113-4.177-1.926" fill="#9282FA" fill-opacity=".4"/>
  <path fill-rule="evenodd" clip-rule="evenodd" d="m13.208 12.958.47-.469c.652-.648 1.667-.78 2.5-.328l1.977 1.075c1.269.69 1.549 2.38.557 3.367l-1.47 1.46c-.373.373-.837.644-1.37.694-1.233.115-3.77.053-6.764-1.7zm-6.114-6.08.297-.294c.73-.727.8-1.894.162-2.746L6.248 2.096C5.46 1.042 3.934.902 3.03 1.802L1.406 3.416C.957 3.862.656 4.44.693 5.082c.067 1.178.469 3.33 2.223 5.975z" fill="#9282FA"/>
</svg>
