<svg width="24" height="24" viewBox="0 0 24 24" fill="none" xmlns="http://www.w3.org/2000/svg"><path fill-rule="evenodd" clip-rule="evenodd" d="M8 1.25a.75.75 0 0 1 .75.75v1.25h6.5V2a.75.75 0 0 1 1.5 0v1.25H19A2.75 2.75 0 0 1 21.75 6v14A2.75 2.75 0 0 1 19 22.75H5A2.75 2.75 0 0 1 2.25 20V6A2.75 2.75 0 0 1 5 3.25h2.25V2A.75.75 0 0 1 8 1.25m-3 3.5c-.69 0-1.25.56-1.25 1.25v14c0 .69.56 1.25 1.25 1.25h14c.69 0 1.25-.56 1.25-1.25V6c0-.69-.56-1.25-1.25-1.25zm7 4a1.25 1.25 0 1 0 0 2.5 1.25 1.25 0 0 0 0-2.5M9.25 10a2.75 2.75 0 1 1 5.5 0 2.75 2.75 0 0 1-5.5 0m-2.195 6.055A2.75 2.75 0 0 1 9 15.25h6A2.75 2.75 0 0 1 17.75 18a.75.75 0 0 1-1.5 0A1.25 1.25 0 0 0 15 16.75H9A1.25 1.25 0 0 0 7.75 18a.75.75 0 0 1-1.5 0c0-.73.29-1.429.805-1.945" fill="#869198"/></svg>