<svg width="20" height="20" viewBox="0 0 20 20" fill="none" xmlns="http://www.w3.org/2000/svg"><path fill-rule="evenodd" clip-rule="evenodd" d="M1.713 4.213a2.3 2.3 0 0 1 1.62-.671h13.334a2.29 2.29 0 0 1 2.291 2.291V7.5c0 .345-.28.625-.625.625a1.875 1.875 0 1 0 0 3.75c.346 0 .625.28.625.625v1.667a2.29 2.29 0 0 1-2.291 2.291H3.333a2.29 2.29 0 0 1-2.291-2.291V12.5c0-.345.28-.625.625-.625a1.875 1.875 0 0 0 0-3.75.625.625 0 0 1-.625-.625V5.833c0-.607.241-1.19.67-1.62m9.745 10.995v-1.041a.625.625 0 1 0-1.25 0v1.041H3.333a1.04 1.04 0 0 1-1.041-1.041v-1.105a3.124 3.124 0 0 0 0-6.124V5.833a1.04 1.04 0 0 1 1.041-1.041h6.875v1.041a.625.625 0 1 0 1.25 0V4.792h5.209a1.04 1.04 0 0 1 1.041 1.041v1.105a3.125 3.125 0 0 0 0 6.124v1.105a1.04 1.04 0 0 1-1.041 1.041zm-.625-6.666c.345 0 .625.28.625.625v1.666a.625.625 0 1 1-1.25 0V9.167c0-.346.28-.625.625-.625" fill="#f9f9f9"/></svg>