<svg width="20" height="20" viewBox="0 0 20 20" fill="none" xmlns="http://www.w3.org/2000/svg"><g clip-path="url(#a)"><path fill-rule="evenodd" clip-rule="evenodd" d="M9.44.672c-.676.06-1.09.12-1.557.228a9.35 9.35 0 0 0-5.607 3.85A9.25 9.25 0 0 0 .66 10c0 1.969.596 3.826 1.746 5.44a9.38 9.38 0 0 0 5.503 3.666 9.5 9.5 0 0 0 4.61-.109A9.36 9.36 0 0 0 18.7 13.4c.676-1.7.822-3.672.407-5.49A9.37 9.37 0 0 0 15.8 2.679a9.3 9.3 0 0 0-4.82-1.97A17 17 0 0 0 9.44.672m.404 4.63a.76.76 0 0 0-.583.62c-.026.161-.028 4.334-.002 4.514a.75.75 0 0 0 .417.568c.122.06.149.066.324.066s.202-.005.324-.066a.75.75 0 0 0 .417-.568c.026-.18.024-4.353-.002-4.513a.75.75 0 0 0-.599-.623.6.6 0 0 0-.296.001m.016 7.258a1.06 1.06 0 0 0-.663.355 1.07 1.07 0 0 0-.246.983c.062.265.262.53.51.677.132.077.383.145.539.145s.407-.068.539-.146c.248-.146.448-.411.51-.676a1.07 1.07 0 0 0-.246-.982 1.08 1.08 0 0 0-.943-.356" fill="#080B12"/></g><defs><clipPath id="a"><path fill="#fff" d="M0 0h20v20H0z"/></clipPath></defs></svg>