<svg width="155" height="154" viewBox="0 0 155 154" fill="none" xmlns="http://www.w3.org/2000/svg"><path d="M126.05.165a1 1 0 1 0-1.1 1.67zM7.855 153.264a1 1 0 0 0 1.41-.119l5.804-6.878a1 1 0 1 0-1.529-1.29l-5.16 6.114-6.113-5.16a1 1 0 0 0-1.29 1.529zM124.95 1.835c13.342 8.79 21.263 16.19 25.056 22.552 1.887 3.165 2.731 6.039 2.744 8.68.014 2.636-.799 5.12-2.354 7.513-3.141 4.834-9.265 9.235-17.468 13.534-8.174 4.285-18.259 8.391-29.171 12.706-21.768 8.608-46.803 18.027-65.873 31.233-19.1 13.227-32.423 30.401-30.38 54.531l1.993-.168c-1.958-23.12 10.72-39.696 29.526-52.719 18.836-13.044 43.613-22.375 65.47-31.017 10.901-4.31 21.081-8.454 29.364-12.794 8.254-4.326 14.778-8.925 18.216-14.216 1.734-2.67 2.693-5.53 2.677-8.613-.015-3.076-1.001-6.297-3.026-9.694C147.693 16.6 139.458 8.999 126.05.165z" fill="#7D298A"/></svg>