<svg width="107" height="16" viewBox="0 0 107 16" fill="none" xmlns="http://www.w3.org/2000/svg"><path d="M2.84 10.8V8.68h5.92q1.06 0 1.68-.56.62-.58.62-1.6 0-1.06-.62-1.62t-1.68-.56h-5.6V15H.5V2.06h8.02q1.08 0 2.02.26.96.26 1.66.8.72.54 1.12 1.38t.4 2.02q0 1.16-.4 1.98T12.2 9.84q-.7.5-1.66.74-.94.22-2.02.22zm17.552 4.42q-1.48 0-2.7-.64a5.14 5.14 0 0 1-1.92-1.82q-.7-1.18-.7-2.72 0-1.58.72-2.74a4.95 4.95 0 0 1 1.94-1.8q1.24-.66 2.8-.66 1.719 0 2.76.7a3.9 3.9 0 0 1 1.54 1.86q.48 1.18.48 2.64 0 .88-.28 1.8-.28.9-.86 1.68-.58.76-1.52 1.24-.94.46-2.26.46m.84-2q1.179 0 2.04-.4.86-.4 1.32-1.12t.46-1.66q0-1.02-.48-1.72-.46-.72-1.32-1.08-.84-.38-2.02-.38-1.66 0-2.58.88-.92.86-.92 2.3 0 .96.44 1.68.44.7 1.22 1.1.8.4 1.84.4m3.82-8.16h2.6V15h-2.42l-.06-.38q-.04-.4-.08-1t-.04-1.18zm4.253 0h7.72v2.02h-7.72zm2.56-2.72h2.6V15h-2.6zM41.657.7v2.28h-3.02V.7zm-2.82 4.36h2.6V15h-2.6zm5.191 0h2.6V15h-2.6zm7.22-.22q.92 0 1.7.24t1.36.74.9 1.28q.32.76.32 1.82V15h-2.6V9.38q0-1.26-.62-1.84-.6-.6-1.98-.6-1.04 0-1.88.4t-1.36 1.02q-.52.6-.6 1.26l-.02-1.02q.1-.7.46-1.36t.96-1.2q.62-.56 1.46-.88t1.9-.32m6.247 6.86h2.4q.22.68.9 1.12.7.42 1.82.42.76 0 1.18-.14t.58-.4q.16-.28.16-.62 0-.42-.26-.64-.26-.24-.8-.38t-1.38-.26q-.84-.14-1.62-.34a6.2 6.2 0 0 1-1.38-.52q-.6-.34-.96-.84-.34-.52-.34-1.26 0-.72.34-1.28.36-.56.98-.94.64-.38 1.48-.58a8 8 0 0 1 1.84-.2q1.48 0 2.46.44.98.42 1.46 1.2.5.76.5 1.76h-2.3q-.16-.74-.64-1.06-.48-.34-1.48-.34-.98 0-1.48.3t-.5.82q0 .42.3.66.32.22.92.36.62.14 1.54.3.78.16 1.48.36.72.2 1.28.52.56.3.88.82.34.5.34 1.28 0 .96-.56 1.62-.54.66-1.56 1.02-1.02.34-2.44.34-1.26 0-2.18-.26-.9-.28-1.5-.7-.6-.44-.94-.92a3.5 3.5 0 0 1-.44-.94q-.12-.44-.08-.72m41.567-9.165c.322-.871 1.554-.871 1.876 0l1.063 2.873c.101.274.317.49.591.59l2.873 1.064c.871.322.871 1.554 0 1.876L102.592 10a1 1 0 0 0-.591.591l-1.063 2.874c-.322.87-1.554.87-1.876 0L98 10.592a1 1 0 0 0-.591-.59l-2.874-1.064c-.87-.322-.87-1.554 0-1.876L97.408 6a1 1 0 0 0 .59-.591z" fill="#000"/></svg>