<svg width="32" height="32" viewBox="0 0 32 32" fill="none" xmlns="http://www.w3.org/2000/svg"><mask id="a" style="mask-type:luminance" maskUnits="userSpaceOnUse" x="0" y="0" width="32" height="32"><path d="M31.758 0H.242v32h31.516z" fill="#fff"/></mask><g mask="url(#a)"><path d="m17.608 5.48 1.215-1.215c2.387-2.387 6.274-2.447 8.675-.073a6.13 6.13 0 0 1 1.195 7.039 2.94 2.94 0 0 0 .56 3.369 8.573 8.573 0 0 0-.017-12.13C25.88-.868 20.43-.802 17.082 2.546L5.495 14.132l-.952-.952C2.115 10.752 2.1 6.784 4.57 4.4a6.13 6.13 0 0 1 7.005-1.059 2.76 2.76 0 0 0 3.2-.495l.03-.03a.1.1 0 0 0 0-.14A8.575 8.575 0 0 0 2.87 2.64c-3.456 3.336-3.443 8.884-.046 12.28l11.583 11.584-1.23 1.23c-2.387 2.387-6.274 2.446-8.674.073a6.13 6.13 0 0 1-1.196-7.04 2.94 2.94 0 0 0-.56-3.368 8.574 8.574 0 0 0 .017 12.13c3.357 3.338 8.806 3.272 12.154-.076L26.52 17.852l.956.956c2.387 2.387 2.446 6.274.073 8.674a6.13 6.13 0 0 1-7.04 1.196 2.94 2.94 0 0 0-3.369.561 8.575 8.575 0 0 0 12.13-.017c3.338-3.357 3.272-8.807-.076-12.154zm-1.471 19.294-8.912-8.911 8.653-8.652 8.911 8.911z" fill="#000"/></g></svg>