<svg width="78" height="58" viewBox="0 0 78 58" fill="none" xmlns="http://www.w3.org/2000/svg"><path fill-rule="evenodd" clip-rule="evenodd" d="M28.989 33.52c-4.892 1.316-8.82 2.207-14.12 3.207-1.79.337-3.274.64-3.298.672s-.193.849-.375 1.813c-.182.965-.533 2.25-.78 2.855l-.449 1.1-1.806.202c-2.05.228-2.509.47-2.917 1.538-.442 1.157-.283 2.233.469 3.177.264.332.53.453 1.112.505.421.037 5.985-.465 12.365-1.115l11.599-1.183.266.49c1.377 2.526 3.199 4.041 5.664 4.712.938.256 3.87.255 4.81 0 2.46-.67 4.283-2.188 5.659-4.713l.267-.49 11.6 1.184c6.379.65 11.943 1.152 12.363 1.115.58-.052.85-.174 1.117-.505.98-1.216.91-3.111-.153-4.09-.368-.339-.728-.443-2.022-.583-.865-.093-1.636-.198-1.714-.232-.288-.13-1.019-2.31-1.335-3.986-.18-.954-.346-1.76-.369-1.79-.022-.03-1.716-.376-3.764-.767a192 192 0 0 1-11.723-2.616c-2.38-.607-2.654-.641-4.534-.563-1.52.063-2.239.177-2.996.473-1.388.544-2.894 1.642-3.855 2.81l-.815.992-.833-1.017c-.906-1.105-2.68-2.368-4.033-2.873-.794-.296-4.644-.526-5.4-.322m4.065 3.022a7.4 7.4 0 0 1 2.216.932c1.054.659 2.29 1.84 2.723 3.16.16.489 2.322.637 2.6 0 .404-1.202 1.29-2.274 2.575-3.096 1.52-.972 2.274-1.178 4.22-1.155 1.361.016 2.18.154 4.467.75 3.542.925 6.032 1.483 9.732 2.182 1.613.305 3.076.614 3.251.688.248.104.398.437.681 1.515.313 1.19.333 1.38.147 1.38-.119 0-4.618-.442-9.998-.983-9.774-.982-9.784-.982-10.353-.644-.5.297-.626.5-1.04 1.671-.92 2.606-2.3 3.563-5.15 3.568-2.75.004-4.286-1.007-5.072-3.34-.392-1.162-.785-1.752-1.364-2.047-.274-.14-2.841.062-10.131.794-5.37.54-9.808.981-9.862.981-.053 0 .014-.346.149-.768a12 12 0 0 0 .34-1.355c.06-.362.206-.641.384-.73.158-.08 1.277-.324 2.487-.544 2.928-.531 7.235-1.482 10.266-2.266 4.033-1.043 4.872-1.13 6.732-.693" fill="#E2E7E9"/><path fill-rule="evenodd" clip-rule="evenodd" d="M25.81 34.349a213 213 0 0 0 3.179-.83c.756-.203 4.606.027 5.4.323 1.353.505 3.127 1.768 4.033 2.874l.833 1.016.815-.991c.961-1.169 2.467-2.267 3.855-2.81.757-.297 1.477-.41 2.996-.474 1.88-.078 2.153-.044 4.534.563q.765.195 1.516.381a7.94 7.94 0 0 0-2.514-4.464 11.2 11.2 0 0 0-1.057-3.471 37.5 37.5 0 0 0 3.28-9.455c.48-2.492.796-5.889-.429-7.916a3.17 3.17 0 0 0-2.825-1.613c-3.963 0-6.407 6.847-7.806 12.99a11.1 11.1 0 0 0-4.467 0c-1.399-6.143-3.843-12.99-7.806-12.99a3.17 3.17 0 0 0-2.825 1.608c-1.227 2.027-.908 5.424-.43 7.916a37.5 37.5 0 0 0 3.28 9.46 11.2 11.2 0 0 0-1.055 3.476 7.98 7.98 0 0 0-2.507 4.407m10.436-1.413a1.595 1.595 0 1 0-2.653-1.773 1.595 1.595 0 0 0 2.653 1.773m6.721-2.213a1.595 1.595 0 1 1 1.773 2.653 1.595 1.595 0 0 1-1.773-2.653" fill="#E2E7E9"/><path d="M6.163 20.796a.89.89 0 0 1 .003-1.032.94.94 0 0 1 .444-.332l1.177-.383a2 2 0 0 0 1.268-1.266l.385-1.192a.896.896 0 0 1 1.698.037l.384 1.179a2 2 0 0 0 1.266 1.269l1.19.387a.895.895 0 0 1-.015 1.691l-1.2.392a2 2 0 0 0-1.243 1.234l-.383 1.191a.895.895 0 0 1-1.692-.013l-.382-1.178a2 2 0 0 0-1.275-1.27l-1.193-.387a.9.9 0 0 1-.432-.327M70.008 33.6a.67.67 0 0 0 .438.53l.644.21a.9.9 0 0 1 .352.214.9.9 0 0 1 .217.352l.206.635a.666.666 0 0 0 1.264.007l.21-.644a.89.89 0 0 1 .566-.554l.635-.206a.667.667 0 0 0 .008-1.264l-.644-.21a.9.9 0 0 1-.564-.566l-.209-.636a.666.666 0 0 0-1.266-.02l-.21.644a.9.9 0 0 1-.217.35.9.9 0 0 1-.35.216l-.634.206a.67.67 0 0 0-.447.735" fill="#E2E7E9"/></svg>