<svg width="230" height="58" viewBox="0 0 230 58" fill="none" xmlns="http://www.w3.org/2000/svg"><path d="M79.368 20.925a2 2 0 0 1 .349-.027q.805 0 1.261.483.457.457.457 1.262 0 1.395-1.45 1.691-1.207.242-4.51.242h-.859q-1.476 0-2.818-.08a53 53 0 0 1-3.248-.323q-1.181-.16-1.181-1.61 0-.698.268-1.155.268-.482.832-.537h.269q.322-2.174.268-4.187h-.188q-.644 0-.966-.43-.295-.456-.295-1.342 0-.752.295-1.235.322-.483.94-.483h.214q.027-.993.027-3.785-.913-.375-.913-1.53 0-.859.457-1.235.456-.402 1.422-.51Q71.314 6 74.778 6q3.354 0 5.127.215.804.08 1.234.483.457.375.457 1.181 0 .805-.403 1.315-.402.483-1.1.43a51 51 0 0 0-4.35-.215q-.858 0-2.2.054l-.698.027.08 3.758h.618q1.341 0 3.275.053l1.718.054q1.046 0 1.046 1.691 0 .806-.322 1.262-.295.456-.859.456-.804 0-1.369-.027l-3.49-.026h-.59q-.054 2.415-.322 4.348 1.02.108 2.55.108 2.228 0 4.188-.242m26.652 3.919q-1.987 0-3.57-.832a6.13 6.13 0 0 1-2.443-2.335q-.86-1.504-.86-3.463 0-2.014.913-3.65a6.67 6.67 0 0 1 2.524-2.605q1.637-.966 3.677-.966 2.174 0 3.866 1.047 1.718 1.047 2.362 2.711.215.51.215.886 0 .886-1.235 1.18-.349.082-.644.081-.537 0-.886-.268-.322-.295-.725-.94-.51-.777-1.154-1.234-.645-.483-1.584-.483-1.503 0-2.47 1.234-.966 1.209-.966 3.06 0 1.692.859 2.658.886.94 2.55.94 1.584 0 2.336-.806.778-.832.778-1.933 0-.429.43-.778.456-.375 1.208-.376.912 0 1.369.35.483.348.483 1.234 0 1.342-.698 2.55t-2.282 1.986q-1.557.753-4.053.752m22.432-3.006q.51.08.778.375.295.296.295 1.047 0 .645-.349 1.101-.322.456-.885.456-1.154 0-1.772-.268-.617-.296-1.127-1.047a3.23 3.23 0 0 1-1.611 1.262q-1.02.349-2.389.349-3.033 0-4.617-1.745t-1.584-4.859q0-2.04.832-3.624t2.309-2.47q1.503-.885 3.436-.885.966 0 1.798.376.832.375 1.262.993l.053-.35q.054-.374.43-.617.376-.268 1.181-.268.859 0 1.262.349.402.35.402.886 0 .188-.026.295-.162.913-.323 3.06-.08.993-.08 2.55v1.343q0 .778.134 1.208.134.402.591.483m-4.483-1.853q.027-1.1.027-3.409 0-.912-.618-1.476-.59-.59-1.53-.59-1.207 0-1.986 1.127-.779 1.1-.779 2.845 0 1.665.698 2.658t1.879.993q1.101 0 1.691-.537.591-.564.618-1.61m15.737-8.886q2.362 0 3.651 1.665 1.315 1.636 1.315 4.858l-.027 6.067q0 .564-.563.859-.537.295-1.343.295a3.5 3.5 0 0 1-1.396-.268q-.59-.27-.59-.752l.027-6.228q0-1.96-.43-2.738-.429-.778-1.342-.778-.778 0-1.235.698-.456.698-.778 2.711a15 15 0 0 0-.188 2.496l.027 3.463q0 .698-.537 1.074-.51.35-1.396.349-.913 0-1.45-.376-.51-.376-.51-1.047 0-5.583-.161-8.697a1.6 1.6 0 0 0-.161-.59 2.5 2.5 0 0 0-.268-.537 11 11 0 0 1-.242-.376 1.2 1.2 0 0 1-.161-.59q0-.565.644-1.048.672-.51 1.289-.51.296 0 .564.188.295.188.644.618.296.376.429.67.135.295.135.672v.241a4.25 4.25 0 0 1 1.449-1.69q.993-.699 2.604-.699m15.736 8.375q.886 0 1.289.35.402.348.402 1.127 0 1.771-1.127 2.845t-2.846 1.074q-2.335 0-3.409-1.88-1.073-1.905-1.073-6.012 0-1.235.026-1.798a5 5 0 0 0-.617-.027q-1.53-.027-1.53-1.477 0-.751.376-1.127.403-.375 1.396-.35l.59.028q.188-1.665.618-4.08.107-.645.59-.967.51-.35 1.289-.349.912 0 1.422.43.51.429.51 1.047l-.026.214-.135.86a287 287 0 0 0-.429 3.006q.913.053 1.396.053 1.368.027 1.369 1.423 0 .697-.376 1.047t-1.262.349h-1.342q-.027.537-.027 1.718 0 1.986.081 3.06.107 1.047.295 1.423.188.375.483.376.377 0 .483-.242.108-.241.108-.859 0-1.262 1.476-1.262m10.72 5.423q-3.409 0-5.423-1.772-1.986-1.798-1.986-5.02 0-2.094.886-3.73a6.34 6.34 0 0 1 2.496-2.551q1.638-.913 3.839-.913 2.228 0 3.919.94a6.47 6.47 0 0 1 2.604 2.63q.939 1.664.939 3.812 0 3.141-1.959 4.886-1.96 1.718-5.315 1.718m-.054-2.98q1.638 0 2.523-.912.913-.94.913-2.765 0-1.8-.886-3.06-.859-1.29-2.55-1.289-1.584 0-2.523 1.154-.94 1.155-.94 3.087 0 1.879.913 2.846.912.94 2.55.94m14.883 3.14q-1.853 0-3.302-.86-1.449-.885-2.067-2.335-.16-.402-.161-.67 0-.564.59-1.074.591-.51 1.289-.51.402 0 .644.188.242.16.376.322.134.135.161.188.779.913 1.289 1.288.51.376 1.234.376.672 0 1.155-.269.483-.294.483-.805 0-.563-.564-.886-.564-.321-1.825-.724-1.396-.484-2.282-.913a4.6 4.6 0 0 1-1.53-1.262q-.644-.858-.644-2.174t.751-2.255q.752-.966 1.987-1.476a7.2 7.2 0 0 1 2.711-.51q1.557 0 2.684.59 1.154.564 1.745 1.53.591.94.591 2.014 0 .725-.403 1.1t-1.342.376q-.833 0-1.154-.268-.296-.27-.376-.752-.08-.671-.43-1.074-.321-.402-1.315-.402-.752 0-1.181.268a.85.85 0 0 0-.403.752q0 .59.564.912.59.323 1.879.698 1.369.43 2.255.86.885.402 1.53 1.234.644.806.644 2.147 0 1.53-.859 2.524a4.8 4.8 0 0 1-2.147 1.422 8.1 8.1 0 0 1-2.577.43M109.99 47.026q-.86 0-1.423-.43-.564-.428-.537-1.154l.215-9.905q.027-.725.564-1.128.537-.43 1.396-.43.885 0 1.449.43t.537 1.181l-.215 9.879a1.45 1.45 0 0 1-.59 1.154q-.537.403-1.396.403m14.331-5.181q.886 0 1.289.349t.403 1.127q0 1.772-1.128 2.846t-2.845 1.074q-2.336 0-3.409-1.88-1.074-1.905-1.074-6.012 0-1.236.027-1.799a5 5 0 0 0-.618-.027q-1.53-.027-1.53-1.476 0-.751.376-1.128.402-.375 1.396-.349l.59.027q.188-1.665.618-4.08.107-.645.59-.966.51-.35 1.289-.35.912 0 1.423.43.51.43.51 1.047l-.027.215-.134.859q-.322 2.201-.43 3.006.912.054 1.396.054 1.37.027 1.369 1.423 0 .697-.376 1.047-.375.349-1.262.349h-1.342q-.027.537-.027 1.718 0 1.986.081 3.06.108 1.047.295 1.422.189.376.483.376.376 0 .484-.241.107-.242.107-.86 0-1.26 1.476-1.261m11.042 5.61q-2.442 0-4.134-.912-1.664-.913-2.496-2.524t-.832-3.65.939-3.624a6.7 6.7 0 0 1 2.604-2.497q1.664-.886 3.704-.886 1.826 0 3.329.725 1.53.724 2.389 2.094.886 1.342.886 3.168 0 1.155-.43 1.664-.402.483-1.396.483h-8.67q0 .645.456 1.315.457.645 1.369 1.101.914.456 2.175.456 1.127 0 1.771-.322.644-.349 1.343-1.02.51-.456 1.046-.456.618 0 1.155.483.537.456.537 1.047 0 .483-.323.94-.563.885-1.905 1.664-1.342.75-3.517.751m2.845-8.375q.243 0 .296-.08.08-.081.08-.296 0-1.047-1.02-1.745-.993-.697-2.469-.697-1.182 0-2.067.456-.859.456-1.316 1.127-.456.645-.456 1.235zm13.656-5.825q1.074 0 1.986.51a3.6 3.6 0 0 1 1.45 1.396q.537.912.537 2.12 0 1.746-1.155 2.712-1.127.94-2.926.94-.939 0-1.315-.27-.376-.294-.376-.965 0-.645.269-.886.268-.27.751-.322 1.584-.161 1.584-1.316 0-.483-.241-.724-.215-.27-.618-.269-.724 0-1.342.832a7.1 7.1 0 0 0-1.02 1.906q-.403 1.074-.51 1.825-.188 1.182-.188 4.188 0 1.449-.429 1.986-.403.51-1.45.51-.966 0-1.476-.375-.484-.376-.51-1.155V41.55q0-1.719-.081-2.9a99 99 0 0 0-.268-3.086l-.108-1.1q-.053-.672.43-1.102.51-.429 1.396-.429 1.503 0 1.61 1.342.054.645.108 1.825.536-1.26 1.503-2.04.993-.805 2.389-.805m19.286 10.952q.511.081.779.376.295.296.295 1.047 0 .645-.349 1.1-.322.457-.886.457-1.154 0-1.771-.269-.618-.294-1.128-1.047a3.22 3.22 0 0 1-1.61 1.262q-1.02.35-2.389.35-3.035 0-4.617-1.746-1.584-1.744-1.584-4.858 0-2.04.832-3.624t2.308-2.47q1.504-.886 3.436-.886.967 0 1.799.376t1.262.993l.053-.349q.054-.375.43-.617.375-.268 1.181-.268.859 0 1.262.349.402.348.402.885 0 .188-.027.296-.16.912-.322 3.06-.08.993-.08 2.55v1.342q0 .78.134 1.208.134.404.59.483m-4.482-1.852q.026-1.1.026-3.41 0-.912-.617-1.476-.591-.59-1.53-.59-1.208 0-1.986 1.127-.779 1.101-.779 2.846 0 1.664.698 2.657t1.879.993q1.101 0 1.691-.536.591-.564.618-1.611m-3.302-9.932q-.564 0-.94-.376a1.37 1.37 0 0 1-.375-.966q0-.323.134-.671.133-.349.376-.564l2.496-2.282q.51-.483.805-.67.323-.189.698-.189.591 0 .993.403.403.402.403 1.02 0 .402-.188.752a1.8 1.8 0 0 1-.429.59l-2.685 2.309q-.375.348-.671.51-.295.135-.617.134m18.985.832q1.074 0 1.987.51a3.63 3.63 0 0 1 1.449 1.396q.537.912.537 2.12 0 1.746-1.154 2.712-1.128.94-2.926.94-.94 0-1.316-.27-.375-.294-.375-.965 0-.645.268-.886.269-.27.752-.322 1.584-.161 1.583-1.316 0-.483-.241-.724-.214-.27-.618-.269-.724 0-1.342.832a7.2 7.2 0 0 0-1.02 1.906q-.402 1.074-.51 1.825-.188 1.182-.188 4.188 0 1.449-.429 1.986-.403.51-1.45.51-.966 0-1.476-.375-.483-.376-.51-1.155V41.55q0-1.719-.081-2.9a96 96 0 0 0-.268-3.086l-.108-1.1q-.053-.672.43-1.102.51-.429 1.396-.429 1.503 0 1.61 1.342.054.645.108 1.825.537-1.26 1.503-2.04.993-.805 2.389-.805m9.113 13.771q-.86 0-1.423-.43-.563-.428-.536-1.154l.214-9.905q.027-.725.564-1.128.537-.43 1.396-.43.886 0 1.449.43t.537 1.181l-.214 9.879a1.45 1.45 0 0 1-.591 1.154q-.537.403-1.396.403m13.124.241q-3.41 0-5.423-1.771-1.986-1.8-1.986-5.02 0-2.094.886-3.731a6.34 6.34 0 0 1 2.496-2.55q1.638-.913 3.839-.913 2.227 0 3.919.94a6.47 6.47 0 0 1 2.604 2.63q.939 1.665.939 3.812 0 3.14-1.959 4.885-1.96 1.718-5.315 1.718m-.054-2.98q1.638 0 2.523-.912.913-.94.913-2.765 0-1.798-.886-3.06-.86-1.288-2.55-1.288-1.584 0-2.523 1.154t-.94 3.087q0 1.879.913 2.845.912.94 2.55.94m14.883 3.141q-1.853 0-3.302-.86-1.45-.886-2.067-2.335-.161-.402-.161-.671 0-.564.59-1.074.591-.51 1.289-.51.402 0 .644.188.241.162.376.322.134.135.161.188.778.913 1.288 1.289t1.235.376q.671 0 1.155-.269.483-.295.483-.805 0-.564-.564-.886t-1.825-.725q-1.397-.483-2.282-.913a4.6 4.6 0 0 1-1.53-1.261q-.645-.86-.644-2.174 0-1.316.751-2.255.751-.967 1.987-1.477a7.2 7.2 0 0 1 2.711-.51q1.557 0 2.684.59 1.155.566 1.745 1.53.591.94.591 2.014 0 .725-.403 1.1-.403.377-1.342.377-.833 0-1.155-.269-.295-.269-.375-.752-.08-.67-.43-1.073-.322-.403-1.315-.403-.752 0-1.181.269a.85.85 0 0 0-.403.751q0 .59.564.913.59.322 1.879.698 1.369.429 2.255.859.885.402 1.53 1.235.644.804.644 2.147 0 1.53-.859 2.523A4.8 4.8 0 0 1 221.994 47a8.1 8.1 0 0 1-2.577.43M91.76 11.1q2.363 0 3.65 1.665 1.317 1.636 1.316 4.858s-.229 6.09-.29 7.194c-.062 1.105-.702 11.185-.702 11.185-.108 1.957-.108 3.177-.108 4.877q0 1.315.108 1.932.134.617.483.86.375.24 1.154.241 1.665 0 5.745-.752.134-.026.376-.026.698 0 1.1.536.43.51.43 1.208 0 1.423-2.067 1.799a64 64 0 0 1-2.819.483q-.939.108-2.389.107-2.63 0-3.865-.563-1.21-.563-1.61-1.88-.404-1.314-.404-4.053 0-3.087.269-5.664c.197-1.718.432-7.268.688-10.876s.009-6.635.009-6.635q0-1.96-.43-2.738-.429-.778-1.342-.778-.778 0-1.235.698-.456.698-.778 2.711a15 15 0 0 0-.188 2.496l.027 3.463q0 .698-.537 1.074-.51.35-1.396.349-.912 0-1.45-.376-.51-.376-.51-1.047 0-5.583-.16-8.697a1.6 1.6 0 0 0-.162-.59 2.5 2.5 0 0 0-.268-.537 10 10 0 0 1-.242-.376 1.2 1.2 0 0 1-.16-.59q0-.565.643-1.048.671-.51 1.289-.51.296 0 .564.188.295.188.644.618.295.376.43.67.134.295.134.672v.241a4.25 4.25 0 0 1 1.45-1.69q.993-.699 2.603-.699m15.74 19.02a.8.8 0 0 0 .525.635l.774.252a1.06 1.06 0 0 1 .683.68l.247.762a.8.8 0 0 0 .756.551.8.8 0 0 0 .761-.543l.252-.772a1.08 1.08 0 0 1 .679-.665l.762-.247a.798.798 0 0 0 .01-1.517l-.773-.251a1.08 1.08 0 0 1-.678-.68l-.25-.763a.797.797 0 0 0-1.222-.417.8.8 0 0 0-.297.394l-.252.771c-.052.158-.14.302-.26.42a1.1 1.1 0 0 1-.42.26l-.762.247a.81.81 0 0 0-.505.514.8.8 0 0 0-.03.368m81.509.001a.8.8 0 0 0 .525.635l.774.252a1.06 1.06 0 0 1 .683.68l.247.762a.8.8 0 0 0 .756.551.8.8 0 0 0 .761-.543l.252-.772a1.08 1.08 0 0 1 .679-.665l.762-.247a.797.797 0 0 0 .404-1.223.8.8 0 0 0-.394-.294l-.773-.251a1.08 1.08 0 0 1-.678-.68l-.25-.763a.797.797 0 0 0-1.222-.417.8.8 0 0 0-.297.394l-.252.771c-.052.158-.14.302-.26.42a1.1 1.1 0 0 1-.42.26l-.762.247a.81.81 0 0 0-.535.882" fill="#E2E7E9"/><path fill-rule="evenodd" clip-rule="evenodd" d="M28.989 33.52c-4.892 1.316-8.82 2.207-14.12 3.207-1.79.337-3.274.64-3.298.672s-.193.849-.375 1.813c-.182.965-.533 2.25-.78 2.855l-.449 1.1-1.806.202c-2.05.228-2.509.47-2.917 1.538-.442 1.157-.283 2.233.469 3.177.264.332.53.453 1.112.505.421.037 5.985-.465 12.365-1.115l11.599-1.183.266.49c1.377 2.526 3.199 4.041 5.664 4.712.938.256 3.87.255 4.81 0 2.46-.67 4.283-2.188 5.659-4.713l.267-.49 11.6 1.184c6.379.65 11.943 1.152 12.363 1.115.58-.052.85-.174 1.117-.505.98-1.216.91-3.111-.153-4.09-.368-.339-.728-.443-2.022-.583-.865-.093-1.636-.198-1.714-.232-.288-.13-1.019-2.31-1.335-3.986-.18-.954-.346-1.76-.369-1.79-.022-.03-1.716-.376-3.764-.767a192 192 0 0 1-11.723-2.616c-2.38-.607-2.654-.641-4.534-.563-1.52.063-2.239.177-2.996.473-1.388.544-2.894 1.642-3.855 2.81l-.815.992-.833-1.017c-.906-1.105-2.68-2.368-4.033-2.873-.794-.296-4.644-.526-5.4-.322m4.065 3.022a7.4 7.4 0 0 1 2.216.932c1.054.659 2.29 1.84 2.723 3.16.16.489 2.322.637 2.6 0 .404-1.202 1.29-2.274 2.575-3.096 1.52-.972 2.274-1.178 4.22-1.155 1.361.016 2.18.154 4.467.75 3.542.925 6.032 1.483 9.732 2.182 1.613.305 3.076.614 3.251.688.248.104.398.437.681 1.515.313 1.19.333 1.38.147 1.38-.119 0-4.618-.442-9.998-.983-9.774-.982-9.784-.982-10.353-.644-.5.297-.626.5-1.04 1.671-.92 2.606-2.3 3.563-5.15 3.568-2.75.004-4.286-1.007-5.072-3.34-.392-1.162-.785-1.752-1.364-2.047-.274-.14-2.841.062-10.131.794-5.37.54-9.808.981-9.862.981-.053 0 .014-.346.149-.768a12 12 0 0 0 .34-1.355c.06-.362.206-.641.384-.73.158-.08 1.277-.324 2.487-.544 2.928-.531 7.235-1.482 10.266-2.266 4.033-1.043 4.872-1.13 6.732-.693" fill="#E2E7E9"/><path fill-rule="evenodd" clip-rule="evenodd" d="M25.81 34.349a213 213 0 0 0 3.179-.83c.756-.203 4.606.027 5.4.323 1.353.505 3.127 1.768 4.033 2.874l.833 1.016.815-.991c.961-1.169 2.467-2.267 3.855-2.81.757-.297 1.477-.41 2.996-.474 1.88-.078 2.153-.044 4.534.563q.765.195 1.516.381a7.94 7.94 0 0 0-2.514-4.464 11.2 11.2 0 0 0-1.057-3.471 37.5 37.5 0 0 0 3.28-9.455c.48-2.492.796-5.889-.429-7.916a3.17 3.17 0 0 0-2.825-1.613c-3.963 0-6.407 6.847-7.806 12.99a11.1 11.1 0 0 0-4.467 0c-1.399-6.143-3.843-12.99-7.806-12.99a3.17 3.17 0 0 0-2.825 1.608c-1.227 2.027-.908 5.424-.43 7.916a37.5 37.5 0 0 0 3.28 9.46 11.2 11.2 0 0 0-1.055 3.476 7.98 7.98 0 0 0-2.507 4.407m10.436-1.413a1.595 1.595 0 1 0-2.653-1.773 1.595 1.595 0 0 0 2.653 1.773m6.721-2.213a1.595 1.595 0 1 1 1.773 2.653 1.595 1.595 0 0 1-1.773-2.653" fill="#E2E7E9"/><path d="M6.163 20.796a.89.89 0 0 1 .003-1.032.94.94 0 0 1 .444-.332l1.177-.383a2 2 0 0 0 1.268-1.266l.385-1.192a.896.896 0 0 1 1.698.037l.384 1.179a2 2 0 0 0 1.266 1.269l1.19.387a.895.895 0 0 1-.015 1.691l-1.2.392a2 2 0 0 0-1.243 1.234l-.383 1.191a.895.895 0 0 1-1.692-.013l-.382-1.178a2 2 0 0 0-1.275-1.27l-1.193-.387a.9.9 0 0 1-.432-.327M70.008 33.6a.67.67 0 0 0 .438.53l.644.21a.9.9 0 0 1 .352.214.9.9 0 0 1 .217.352l.206.635a.666.666 0 0 0 1.264.007l.21-.644a.89.89 0 0 1 .566-.554l.635-.206a.667.667 0 0 0 .008-1.264l-.644-.21a.9.9 0 0 1-.564-.566l-.209-.636a.666.666 0 0 0-1.266-.02l-.21.644a.9.9 0 0 1-.217.35.9.9 0 0 1-.35.216l-.634.206a.67.67 0 0 0-.447.735" fill="#E2E7E9"/></svg>